<?xml version="1.0" encoding="iso-8859-1"?>
<!-- Generator: Adobe Illustrator 16.0.0, SVG Export Plug-In . SVG Version: 6.00 Build 0)  -->
<!DOCTYPE svg PUBLIC "-//W3C//DTD SVG 1.1//EN" "http://www.w3.org/Graphics/SVG/1.1/DTD/svg11.dtd">
<svg version="1.1" id="Capa_1" xmlns="http://www.w3.org/2000/svg" xmlns:xlink="http://www.w3.org/1999/xlink" x="0px" y="0px"
	 width="353.925px" height="353.925px" viewBox="0 0 353.925 353.925" style="enable-background:new 0 0 353.925 353.925;"
	 xml:space="preserve">
<g>
	<path d="M323.351,176.962l17.072-17.072c5.117-5.115,7.934-11.916,7.934-19.15s-2.816-14.035-7.932-19.149l-23.367-23.368
		c-5.115-5.113-11.914-7.929-19.146-7.929c-7.23,0-14.031,2.815-19.148,7.931l-17.074,17.074V10c0-3.749-2.096-7.183-5.432-8.896
		c-3.334-1.712-7.348-1.416-10.395,0.768L94.801,110.163H15.568c-5.521,0-10,4.477-10,10v113.598c0,5.523,4.479,10,10,10H94.8
		l151.061,108.291c1.732,1.241,3.775,1.873,5.828,1.873c1.561,0,3.127-0.365,4.566-1.104c3.336-1.712,5.432-5.146,5.432-8.896
		V238.626l17.078,17.077c5.113,5.112,11.914,7.927,19.145,7.927h0.002c7.232,0,14.033-2.815,19.148-7.931l23.361-23.363
		c10.561-10.556,10.564-27.734,0.002-38.301L323.351,176.962z M322.091,206.086c2.578,2.58,2.58,6.764,0,9.343l-21.801,21.801
		c-2.58,2.58-6.762,2.579-9.342,0l-29.125-29.124l-29.123,29.124c-2.58,2.58-6.764,2.58-9.342,0l-21.801-21.801
		c-2.58-2.581-2.58-6.763,0-9.343l29.125-29.124l-29.124-29.124c-2.58-2.58-2.58-6.762,0-9.342l21.801-21.8
		c2.578-2.58,6.763-2.58,9.343,0l29.123,29.124l29.125-29.124c2.58-2.579,6.762-2.579,9.342,0l21.801,21.8
		c2.58,2.58,2.58,6.763,0,9.342l-29.127,29.124L322.091,206.086z"/>
</g>
<g>
</g>
<g>
</g>
<g>
</g>
<g>
</g>
<g>
</g>
<g>
</g>
<g>
</g>
<g>
</g>
<g>
</g>
<g>
</g>
<g>
</g>
<g>
</g>
<g>
</g>
<g>
</g>
<g>
</g>
</svg>
